<svg width="63" height="64" viewBox="0 0 63 64" fill="none" xmlns="http://www.w3.org/2000/svg">
<path opacity="0.5" d="M18.855 61.0908H14.2634C7.74413 61.0908 1 53.9601 1 47.4408V38.4378C1 33.1658 3.4176 28.185 7.55956 24.9237L15.9912 18.2846L10.1194 9.1097C8.57483 6.69634 10.308 1.93896 13.1732 1.93896H23.1145C23.1327 4.27064 20.5997 5.64294 19.3526 7.61316C18.631 8.75313 19.0189 10.3466 19.6517 11.547L22.7367 16.7877C24.0525 18.7622 23.67 21.4109 21.8492 22.9324L10.8487 31.7855C9.06966 33.2722 8.05025 35.4776 8.07079 37.796L8.15637 47.7211C8.15637 53.3595 13.5691 59.9196 18.855 61.0908ZM44.6311 35.3384C44.6311 31.3623 47.0729 28.4324 50.5332 27.5566C49.4393 27.2798 48.2446 27.126 46.992 27.126C41.7766 27.126 37.5487 31.3589 37.5487 34.6185C37.5487 37.8781 41.7766 43.4225 46.992 43.4225C48.2446 43.4225 49.4393 43.2686 50.5332 42.9918C47.0729 42.1161 44.6311 38.5193 44.6311 35.3384Z" fill="#1B377F" fill-opacity="0.25"/>
<path d="M46.5609 22.6697C46.2142 23.0996 46.2817 23.7292 46.7116 24.0759C47.1415 24.4226 47.771 24.3551 48.1177 23.9252L46.5609 22.6697ZM46.9837 19.9778L47.6115 19.1994L47.6114 19.1994L46.9837 19.9778ZM49.8836 11.1239L49.0383 10.5896L49.0383 10.5896L49.8836 11.1239ZM10.2823 5.05159L9.40508 4.57149L9.40506 4.57153L10.2823 5.05159ZM10.4916 11.1527L11.3338 10.6136L11.3338 10.6136L10.4916 11.1527ZM8.45997 23.8392L9.0786 24.6248L9.07862 24.6248L8.45997 23.8392ZM2.96362 30.6662L3.86323 31.1029L3.86324 31.1029L2.96362 30.6662ZM31.3366 63.3761C31.8889 63.3761 32.3366 62.9284 32.3366 62.3761C32.3366 61.8238 31.8889 61.3761 31.3366 61.3761V63.3761ZM14.7208 17.7607L13.8785 18.2998L14.7208 17.7607ZM14.4971 19.0854L13.8785 18.2998L14.4971 19.0854ZM45.8917 19.0972L46.5195 18.3188L45.8917 19.0972ZM45.6741 17.7845L46.5195 18.3188L45.6741 17.7845ZM49.633 42.3714C46.4968 42.3714 43.7535 41.5102 41.8222 40.1583C39.8929 38.8078 38.8289 37.019 38.8289 35.1086H36.8289C36.8289 37.8315 38.3573 40.1741 40.6753 41.7967C42.9913 43.4179 46.15 44.3714 49.633 44.3714V42.3714ZM38.8289 35.1086C38.8289 33.1981 39.8929 31.4093 41.8222 30.0588C43.7535 28.7069 46.4968 27.8457 49.633 27.8457V25.8457C46.15 25.8457 42.9913 26.7992 40.6753 28.4204C38.3573 30.043 36.8289 32.3856 36.8289 35.1086H38.8289ZM49.633 27.8457C52.7692 27.8457 55.5125 28.7069 57.4438 30.0588C59.373 31.4093 60.4371 33.1981 60.4371 35.1086H62.4371C62.4371 32.3856 60.9087 30.043 58.5907 28.4204C56.2747 26.7992 53.116 25.8457 49.633 25.8457V27.8457ZM60.4371 35.1086C60.4371 37.019 59.373 38.8078 57.4438 40.1583C55.5125 41.5102 52.7692 42.3714 49.633 42.3714V44.3714C53.116 44.3714 56.2747 43.4179 58.5907 41.7967C60.9087 40.1741 62.4371 37.8315 62.4371 35.1086H60.4371ZM48.1177 23.9252C49.283 22.4803 49.0561 20.3646 47.6115 19.1994L46.3559 20.7562C46.9409 21.228 47.0327 22.0848 46.5609 22.6697L48.1177 23.9252ZM47.6114 19.1994L46.5195 18.3188L45.264 19.8756L46.3559 20.7562L47.6114 19.1994ZM46.5195 18.3188L50.7289 11.6581L49.0383 10.5896L44.8288 17.2503L46.5195 18.3188ZM50.7289 11.6582C52.0892 9.50603 52.1709 6.78382 50.9423 4.55403L49.1906 5.51917C50.0674 7.11061 50.0091 9.05363 49.0383 10.5896L50.7289 11.6582ZM50.9423 4.55403C49.7137 2.32422 47.3689 0.938965 44.8229 0.938965V2.93896C46.64 2.93896 48.3138 3.92775 49.1906 5.51917L50.9423 4.55403ZM44.8229 0.938965H15.5339V2.93896H44.8229V0.938965ZM15.5339 0.938965C12.9799 0.938965 10.6313 2.33102 9.40508 4.57149L11.1595 5.5317C12.0349 3.93229 13.7108 2.93896 15.5339 2.93896V0.938965ZM9.40506 4.57153C8.17895 6.81203 8.27249 9.54047 9.64931 11.6917L11.3338 10.6136C10.351 9.07798 10.2843 7.13104 11.1595 5.53166L9.40506 4.57153ZM9.64931 11.6917L13.8785 18.2998L15.563 17.2217L11.3338 10.6136L9.64931 11.6917ZM13.8785 18.2998L7.84133 23.0535L9.07862 24.6248L15.1158 19.8711L13.8785 18.2998ZM7.84134 23.0535C5.41122 24.9669 3.41457 27.4471 2.06399 30.2295L3.86324 31.1029C5.08171 28.5926 6.88623 26.3511 9.0786 24.6248L7.84134 23.0535ZM2.064 30.2295C0.713295 33.0121 0 36.1151 0 39.208H2C2 36.4177 2.64465 33.6133 3.86323 31.1029L2.064 30.2295ZM0 39.208V48.2111H2V39.208H0ZM0 48.2111C0 56.574 6.80211 63.3761 15.165 63.3761V61.3761C7.90668 61.3761 2 55.4694 2 48.2111H0ZM15.165 63.3761H31.3366V61.3761H15.165V63.3761ZM13.8785 18.2998L13.8785 18.2998L15.1158 19.8711C15.9242 19.2345 16.1177 18.0884 15.563 17.2217L13.8785 18.2998ZM46.5195 18.3188L44.8288 17.2503C44.2861 18.1089 44.4733 19.238 45.264 19.8756L46.5195 18.3188Z" fill="#1B377F"/>
<path d="M40.9 56.694C40.4527 56.37 39.8275 56.47 39.5035 56.9173C39.1796 57.3646 39.2795 57.9898 39.7268 58.3137L40.9 56.694ZM62.5562 58.3138C63.0035 57.9898 63.1035 57.3646 62.7795 56.9173C62.4556 56.47 61.8303 56.37 61.3831 56.694L62.5562 58.3138ZM62.5561 50.3429C63.0034 50.0189 63.1034 49.3937 62.7794 48.9464C62.4554 48.4991 61.8302 48.3991 61.3829 48.7231L62.5561 50.3429ZM40.8999 48.7231C40.4526 48.3991 39.8274 48.4991 39.5034 48.9464C39.1794 49.3937 39.2794 50.0189 39.7267 50.3429L40.8999 48.7231ZM28.7136 20.4158C28.1613 20.4158 27.7136 20.8635 27.7136 21.4158C27.7136 21.9681 28.1613 22.4158 28.7136 22.4158V20.4158ZM34.9698 22.4158C35.5221 22.4158 35.9698 21.9681 35.9698 21.4158C35.9698 20.8635 35.5221 20.4158 34.9698 20.4158V22.4158ZM51.1415 59.7856C47.2639 59.7856 43.6302 58.6714 40.9 56.694L39.7268 58.3137C42.8404 60.5688 46.8978 61.7856 51.1415 61.7856V59.7856ZM61.3831 56.694C58.6527 58.6714 55.019 59.7856 51.1415 59.7856V61.7856C55.3851 61.7856 59.4425 60.5688 62.5562 58.3138L61.3831 56.694ZM39.7267 50.3429C42.8404 52.5979 46.8978 53.8147 51.1415 53.8147V51.8147C47.2639 51.8147 43.6302 50.7005 40.8999 48.7231L39.7267 50.3429ZM51.1415 53.8147C55.3851 53.8147 59.4425 52.5979 62.5561 50.3429L61.3829 48.7231C58.6527 50.7005 55.019 51.8147 51.1415 51.8147V53.8147ZM28.7136 22.4158H34.9698V20.4158H28.7136V22.4158Z" fill="#FF6000"/>
</svg>
