<svg width="69" height="79" viewBox="0 0 69 79" fill="none" xmlns="http://www.w3.org/2000/svg">
<path d="M66.4299 59.9292L65.5396 60.3846L65.5396 60.3846L66.4299 59.9292ZM57.0877 56.5245L56.7275 55.5917L56.7273 55.5917L57.0877 56.5245ZM47.5015 54.955L46.5747 55.3306L46.5747 55.3307L47.5015 54.955ZM42.3257 50.3324L42.5987 49.3704L42.5987 49.3704L42.3257 50.3324ZM38.4147 50.1022L38.5518 51.0928L38.5518 51.0928L38.4147 50.1022ZM19.072 45.4562L19.5725 44.5904L19.5725 44.5904L19.072 45.4562ZM0.6602 42.3745C0.140777 42.5621 -0.128164 43.1353 0.0595023 43.6548C0.247169 44.1742 0.820377 44.4431 1.3398 44.2554L0.6602 42.3745ZM40.8576 61.4219L40.7524 60.4275L40.8576 61.4219ZM34.6711 61.6154L34.6775 62.6154L34.6826 62.6154L34.6711 61.6154ZM27.7532 59.7901C27.2197 59.6474 26.6715 59.9642 26.5288 60.4977C26.3861 61.0312 26.7029 61.5795 27.2364 61.7222L27.7532 59.7901ZM1.79528 67.5401C1.24299 67.5401 0.795278 67.9878 0.795278 68.5401C0.795278 69.0924 1.24299 69.5401 1.79528 69.5401V67.5401ZM2.53412 68.4321L2.41432 67.4393L2.33202 67.4492L2.25248 67.4726L2.53412 68.4321ZM7.0111 69.6199L6.52765 70.4953L6.52767 70.4953L7.0111 69.6199ZM63.4206 69.9671L62.9429 69.0886L62.9429 69.0886L63.4206 69.9671ZM67.3202 59.4739C65.339 55.6003 60.8568 53.9974 56.7275 55.5917L57.4478 57.4574C60.6737 56.2119 64.0495 57.4713 65.5396 60.3846L67.3202 59.4739ZM56.7273 55.5917C54.159 56.5839 51.0645 57.7783 47.7029 58.7219L48.2434 60.6475C51.7089 59.6747 54.8866 58.4469 57.448 57.4574L56.7273 55.5917ZM48.953 59.8848C49.3092 58.1401 49.1284 56.3064 48.4282 54.5793L46.5747 55.3307C47.1339 56.7101 47.2672 58.1438 46.9934 59.4846L48.953 59.8848ZM48.4282 54.5793C47.3932 52.0259 45.2637 50.1268 42.5987 49.3704L42.0527 51.2944C44.1304 51.8841 45.7737 53.3546 46.5747 55.3306L48.4282 54.5793ZM42.5987 49.3704C41.2393 48.9846 39.7826 48.9033 38.2775 49.1117L38.5518 51.0928C39.812 50.9183 40.9871 50.992 42.0527 51.2944L42.5987 49.3704ZM38.2776 49.1117C29.5077 50.3255 24.3288 47.3396 19.5725 44.5904L18.5716 46.322C23.3986 49.112 29.0812 52.4036 38.5518 51.0928L38.2776 49.1117ZM19.5725 44.5904C16.3994 42.7564 13.1237 40.8365 9.2488 40.8365V42.8365C12.4959 42.8365 15.3039 44.4333 18.5716 46.322L19.5725 44.5904ZM9.2488 40.8365C7.06229 40.8365 4.916 41.2239 3.33257 41.6033C2.53698 41.7939 1.87461 41.9847 1.4091 42.1285C1.17618 42.2005 0.992077 42.2608 0.864714 42.3037C0.801019 42.3252 0.751475 42.3423 0.717069 42.3543C0.699865 42.3603 0.686442 42.3651 0.676924 42.3685C0.672165 42.3702 0.668381 42.3715 0.665589 42.3725C0.664193 42.373 0.663044 42.3734 0.662145 42.3738C0.661696 42.3739 0.661309 42.3741 0.660985 42.3742C0.660823 42.3742 0.660626 42.3743 0.660545 42.3743C0.660365 42.3744 0.6602 42.3745 1 43.315C1.3398 44.2554 1.33967 44.2555 1.33955 44.2555C1.33953 44.2555 1.33943 44.2556 1.33939 44.2556C1.33931 44.2556 1.3393 44.2556 1.33935 44.2556C1.33945 44.2556 1.33979 44.2555 1.34037 44.2552C1.34155 44.2548 1.3437 44.2541 1.34681 44.2529C1.35303 44.2507 1.36309 44.2472 1.37687 44.2424C1.40443 44.2327 1.44686 44.2181 1.50317 44.1991C1.61582 44.1612 1.78388 44.106 1.99953 44.0394C2.43116 43.906 3.05157 43.7272 3.79857 43.5482C5.30032 43.1884 7.27843 42.8365 9.2488 42.8365V40.8365ZM47.9732 59.6847C47.6947 58.7242 47.6947 58.7242 47.6947 58.7242C47.6947 58.7242 47.6947 58.7243 47.6946 58.7243C47.6945 58.7243 47.6943 58.7244 47.694 58.7245C47.6934 58.7246 47.6925 58.7249 47.6913 58.7252C47.6888 58.7259 47.6851 58.727 47.6802 58.7284C47.6703 58.7313 47.6555 58.7356 47.636 58.7412C47.5971 58.7524 47.5394 58.7689 47.4653 58.7901C47.317 58.8325 47.1029 58.8933 46.8402 58.9669C46.3146 59.1142 45.5962 59.3124 44.8236 59.5162C43.2431 59.9331 41.5449 60.3436 40.7524 60.4275L40.9628 62.4164C41.939 62.3131 43.7986 61.855 45.3337 61.4501C46.119 61.2429 46.8478 61.0419 47.38 60.8927C47.6462 60.8181 47.8636 60.7563 48.0147 60.7132C48.0902 60.6916 48.1491 60.6747 48.1894 60.6631C48.2095 60.6573 48.2249 60.6529 48.2354 60.6498C48.2406 60.6483 48.2446 60.6472 48.2473 60.6464C48.2487 60.646 48.2497 60.6457 48.2504 60.6455C48.2508 60.6454 48.2511 60.6453 48.2513 60.6452C48.2514 60.6452 48.2515 60.6452 48.2515 60.6452C48.2516 60.6452 48.2516 60.6451 47.9732 59.6847ZM40.7524 60.4275C38.0705 60.7112 37.0822 60.5875 34.6595 60.6155L34.6826 62.6154C36.9693 62.5889 38.1565 62.7132 40.9628 62.4164L40.7524 60.4275ZM34.6647 60.6155C32.2099 60.6312 29.8283 60.3452 27.7532 59.7901L27.2364 61.7222C29.5055 62.3292 32.0674 62.6322 34.6775 62.6154L34.6647 60.6155ZM1.79528 69.5401C2.15412 69.5401 2.49623 69.4854 2.81576 69.3916L2.25248 67.4726C2.10217 67.5167 1.94967 67.5401 1.79528 67.5401V69.5401ZM2.65392 69.4249C2.91707 69.3931 4.34447 69.2896 6.52765 70.4953L7.49456 68.7446C4.91512 67.32 3.06052 67.3613 2.41432 67.4393L2.65392 69.4249ZM6.52767 70.4953C13.1894 74.1743 23.5854 78.6011 35.0854 78.6011V76.6011C24.0674 76.6011 14.0186 72.3475 7.49454 68.7445L6.52767 70.4953ZM35.0854 78.6011C49.6383 78.6011 59.3021 73.3448 63.8983 70.8457L62.9429 69.0886C58.4254 71.545 49.1247 76.6011 35.0854 76.6011V78.6011ZM63.8983 70.8457C67.9046 68.6674 69.3983 63.5368 67.3202 59.4739L65.5396 60.3846C67.1409 63.5155 65.963 67.4466 62.9429 69.0886L63.8983 70.8457Z" fill="#1B377F"/>
<path opacity="0.5" d="M31.049 26.4317V22.7985C31.049 18.3396 34.6636 12.6899 39.1226 12.6899H31.049C26.59 12.6899 22.9753 18.3396 22.9753 22.7985V26.4317C22.9753 30.8906 27.0318 36.9066 31.4907 36.9066H39.5643C35.1054 36.9066 31.049 30.8906 31.049 26.4317Z" fill="#FF6000" fill-opacity="0.3"/>
<path d="M46.9675 12.6207V9.07361C46.9675 4.62182 43.3456 1 38.8938 1C34.4421 1 30.8202 4.62182 30.8202 9.07361V12.5751M46.9675 12.6207C51.1904 14.0766 54.2337 18.0877 54.2337 22.7987V26.4319C54.2337 32.3676 49.4046 37.1967 43.4689 37.1967H34.1842C28.2485 37.1967 23.4194 32.3676 23.4194 26.4319V22.7987C23.4194 18.0377 26.5275 13.9912 30.8202 12.5751M46.9675 12.6207L30.8202 12.5751" stroke="#FF6000" stroke-width="2"/>
<path d="M38.8042 21.3186C36.9463 21.3186 35.4402 22.8247 35.4402 24.6826C35.4402 26.5405 36.9463 28.0466 38.8042 28.0466C40.6621 28.0466 42.1682 26.5405 42.1682 24.6826C42.1682 22.8247 40.6621 21.3186 38.8042 21.3186Z" fill="#FF6000"/>
</svg>
