<svg width="60" height="66" viewBox="0 0 60 66" fill="none" xmlns="http://www.w3.org/2000/svg">
<path opacity="0.5" d="M19.9498 18.4452C19.9498 11.8407 24.2598 3.65536 30.2204 1.72256C28.7758 1.25424 27.2348 1 25.6342 1C17.4289 1 9.48315 10.24 9.48315 18.4452C9.48315 26.6504 17.4289 35.8904 25.6342 35.8904C27.2348 35.8904 28.7758 35.6362 30.2204 35.1679C24.2598 33.2351 19.9498 25.0498 19.9498 18.4452Z" fill="#1B377F" fill-opacity="0.25"/>
<path d="M0.83252 64.5659C0.83252 65.1181 1.28023 65.5659 1.83252 65.5659C2.3848 65.5659 2.83252 65.1181 2.83252 64.5659H0.83252ZM37.1418 43.4869C37.6588 43.6812 38.2354 43.4197 38.4298 42.9027C38.6241 42.3858 38.3626 41.8091 37.8456 41.6148L37.1418 43.4869ZM2.83252 64.5659C2.83252 52.1533 12.9325 42.0534 25.345 42.0534V40.0534C11.8279 40.0534 0.83252 51.0488 0.83252 64.5659H2.83252ZM25.345 42.0534H29.2207V40.0534H25.345V42.0534ZM29.2207 42.0534C31.9479 42.0534 34.612 42.5358 37.1418 43.4869L37.8456 41.6148C35.089 40.5784 32.1863 40.0534 29.2207 40.0534V42.0534ZM45.465 18.4452C45.465 8.2762 37.1935 0.00463867 27.0245 0.00463867V2.00464C36.0889 2.00464 43.465 9.38077 43.465 18.4452H45.465ZM27.0245 0.00463867C16.8554 0.00463867 8.58389 8.2762 8.58389 18.4452H10.5839C10.5839 9.38077 17.96 2.00464 27.0245 2.00464V0.00463867ZM8.58389 18.4452C8.58389 28.6142 16.8554 36.8858 27.0245 36.8858V34.8858C17.96 34.8858 10.5839 27.5097 10.5839 18.4452H8.58389ZM27.0245 36.8858C37.1935 36.8858 45.465 28.6142 45.465 18.4452H43.465C43.465 27.5097 36.0889 34.8858 27.0245 34.8858V36.8858Z" fill="#1B377F"/>
<path d="M45.4984 46.4296C44.9461 46.4296 44.4984 46.8773 44.4984 47.4296C44.4984 47.9819 44.9461 48.4296 45.4984 48.4296V46.4296ZM57.9318 60.863C57.9318 61.4152 58.3795 61.863 58.9318 61.863C59.4841 61.863 59.9318 61.4152 59.9318 60.863H57.9318ZM53.5018 54.8645C53.898 54.4797 53.9072 53.8466 53.5224 53.4505C53.1375 53.0543 52.5044 53.0451 52.1083 53.4299L53.5018 54.8645ZM30.2881 61.8008C29.7358 61.8008 29.2881 62.2485 29.2881 62.8008C29.2881 63.3531 29.7358 63.8008 30.2881 63.8008V61.8008ZM45.4984 48.4296H52.3227V46.4296H45.4984V48.4296ZM52.3227 48.4296C54.3393 48.4296 55.6964 48.949 56.5544 49.807C57.4124 50.665 57.9318 52.0221 57.9318 54.0388H59.9318C59.9318 51.6973 59.3256 49.7498 57.9686 48.3928C56.6116 47.0357 54.6641 46.4296 52.3227 46.4296V48.4296ZM57.9318 54.0388V60.863H59.9318V54.0388H57.9318ZM30.2881 63.8008H31.4954V61.8008H30.2881V63.8008ZM31.4954 63.8008C39.6888 63.8008 47.6407 60.5579 53.5018 54.8645L52.1083 53.4299C46.619 58.7621 39.1665 61.8008 31.4954 61.8008V63.8008Z" fill="#FF6000"/>
</svg>
