<svg id="Layer_1" data-name="Layer 1" xmlns="http://www.w3.org/2000/svg" viewBox="0 0 110 90"><defs><style>.cls-1{fill:#1b377f;fill-opacity:0.25;}.cls-2,.cls-3{fill:none;}.cls-2{stroke:#ff6000;}.cls-3{stroke:#1b377f;}</style></defs><path class="cls-1" d="M27.22,62.26c0-2.51.28-5.62,2.61-5.62h8.9c2.09,0,2.62-1.12,2.62-1.64V13.06a1.57,1.57,0,1,1,0-3.14V4.17a1.47,1.47,0,1,1,0-2.93H35.59S33,1,33,2.6c0,1.19,2.62,1.57,2.62,1.57V9.92s-2.62,0-2.62,2c0,1.17,2.62,1.17,2.62,1.17V54.41H24.07c-2.93,0-3.66,2.09-3.66,3.14v9.94H16.22c-6.28,0-9.94,6.28-9.94,9.42V89.47H27.22Z"/><path class="cls-2" d="M83.78,72.19a1.55,1.55,0,0,0,1.54-1.56V63.05a1.55,1.55,0,0,0-1.54-1.57H31a1.55,1.55,0,0,0-1.54,1.57v7.58A1.55,1.55,0,0,0,31,72.19ZM64.6,69.06H58.93V64.61H64.6Zm3.08-4.45h5.66v4.45H67.68ZM55.85,69.06H50.18V64.61h5.67Zm-8.74,0H41.44V64.61h5.67Zm35.13,0H76.42V64.61h5.82Zm-49.7-4.45h5.82v4.45H32.54Z"/><path class="cls-3" d="M109.87,89h-7.59m0,0V30.73m0,58.29H94.15m8.13-58.29h.65a1.53,1.53,0,1,0,0-3.06h-.65m0,3.06H83.93m18.35-3.06V22.24m0,5.43H83.9m18.38-5.43h.65a1.54,1.54,0,1,0,0-3.07H83.28a1.54,1.54,0,1,0,0,3.07h.65m18.35,0H83.93m0,0v5.43h-.65a1.53,1.53,0,1,0,0,3.06h.65m0,0v6.68m0,0L73.28,26.85a5.15,5.15,0,0,0-3.64-1.49h-6.8m21.09,12v7.23M62.84,25.36V13.1m0,12.26v6m0-18.28h.9a1.53,1.53,0,1,0,0-3.06h-.9V4.09m0,9H35.4m27.44-9h.9a1.53,1.53,0,1,0,0-3.06H34.5a1.53,1.53,0,1,0,0,3.06h.9m27.44,0H35.4m0,0V10m0,0h-.9a1.53,1.53,0,1,0,0,3.06h.9m0-3.06H62.87M35.4,13.1V54.66m0,0H29.47m5.93,0H62.84m-33.37,0V47.72h.74a1.53,1.53,0,1,0,0-3.06h-.74v-.53a1.55,1.55,0,0,0-3.1,0v.53h-.74a1.53,1.53,0,1,0,0,3.06h.74v6.94m3.1,0h-3.1m0,0H23a2.78,2.78,0,0,0-2.79,2.76v10m0,0H17.18A10.73,10.73,0,0,0,9,71.27,10.17,10.17,0,0,0,6.48,78V89M20.24,67.47V89M6.48,89H44.24M6.48,89H0M62.84,54.66H83.93m-21.09,0V35.58m0,0H67.5L83.93,51.87M62.84,35.58v-4.2M83.93,51.87v2.79m0-2.79V44.64m0,10h7.44a2.78,2.78,0,0,1,2.78,2.76V89m0,0h-24m0,0V78.38a1.54,1.54,0,0,0-1.54-1.54H45.79a1.55,1.55,0,0,0-1.55,1.54V89m25.91,0H44.24m18.6-57.64h7.29l13.8,13.26"/></svg>