<svg id="Layer_1" data-name="Layer 1" xmlns="http://www.w3.org/2000/svg" viewBox="0 0 108 99"><defs><style>.cls-1{fill:#ff6000;fill-opacity:0.25;}.cls-2,.cls-3,.cls-4{fill:none;}.cls-2,.cls-3{stroke:#ff6000;}.cls-4{stroke:#1b377f;}</style></defs><path class="cls-1" d="M29.32,8.22,25.23,14.5l-8.68-1.15c-1.17-.26-2.46-2.08,1.75-7.26a14.37,14.37,0,0,1,13.27-4.9L88.71,12.47,88.5,14c-11.15-1.72-34-6.84-42-7.91C32.91,4.27,31,6.5,29.32,8.22Z"/><path class="cls-2" d="M27.38,61.72v-42m0,0H23.86A3.32,3.32,0,0,1,21,16.32V13.78m6.35,6H30.5c3-.24,3-2.93,3-4.61M21,13.78l-4.88-.58a1.6,1.6,0,0,1-.88-2.15C15.82,10,17,8,17.42,7.24A14.71,14.71,0,0,1,33.14,1.48L88.79,12.32M21,13.78l12.5,1.35m55.26-2.81-1,8.69m1-8.69L99,3.53c2.44-1.66,3.74.78,3.9,1.86,2.45,12.49,3.42,31.43-.39,42.66C98.36,58,92.4,64.26,90.25,65.43c-1.72.94-2.34-.26-2.44-1V21m0,0L33.53,15.13"/><path class="cls-3" d="M94.15,18.16h0a1,1,0,0,0,.73.34,1,1,0,0,0,.63-.24Zm0,0a1,1,0,0,1,.11-1.36h0l3.16-2.7h0m-3.27,4.06,3.27-4.06m0,0h0m0,0h0m0,0a1,1,0,0,1,1.36.11Zm1.25,1.47-3.16,2.69,3.27-4.05a1,1,0,0,1-.11,1.36Z"/><path class="cls-3" d="M93.11,48v-1.8a1,1,0,1,1,1.93,0V48a1,1,0,0,1-1.93,0Z"/><path class="cls-4" d="M23.75,81.65h0a3.41,3.41,0,1,0-4.83,0h0m4.83,0H18.92m4.83,0a3.4,3.4,0,0,1-4.83,0m4.83,0H18.92"/><path class="cls-4" d="M35.23,70.18a3.42,3.42,0,1,0-4.83,0h0m4.83,0-5.18.35m5.18-.35a3.42,3.42,0,0,1-4.83,0m4.83,0H30.4m0,0-.35.35m0,0a3.91,3.91,0,1,0,0-5.53A3.91,3.91,0,0,0,30.05,70.53Z"/><path class="cls-4" d="M25.76,71.91h0a1,1,0,0,1,1.37,0h0l1.54,1.54h0a1,1,0,0,1,0,1.36h0a1,1,0,0,1-.68.29.94.94,0,0,1-.68-.29h0l-1.55-1.54h0A1,1,0,0,1,25.76,71.91Z"/><path class="cls-4" d="M63.2,23.26H56.38a1,1,0,0,1,0-1.93H63.2a1,1,0,1,1,0,1.93Z"/><path class="cls-4" d="M107,98H82.7m0,0V92.18a2.77,2.77,0,0,0-2.76-2.76H77.16M82.7,98H36.89m40.27-8.62V83.09a2.29,2.29,0,0,0-2.29-2.28H73l-6.8-52.54H68.8a3.35,3.35,0,0,0,3.35-3.35V19.24L47.44,16.59v8.33a3.35,3.35,0,0,0,3.34,3.35h2.57l-6.8,52.54H44.71a2.28,2.28,0,0,0-2.28,2.28v6.33m34.73,0H42.43M16.21,86a8.1,8.1,0,0,1-.9-.78,8.21,8.21,0,0,1,0-11.59l.36-.35,4.14-4.14,6-6.05,2.93-2.7A8.2,8.2,0,0,1,39.12,73.05L27.39,84.78M16.21,86l-3.9,12m3.9-12a16.36,16.36,0,0,0,2.65,1.31,8.2,8.2,0,0,0,2.25.31,8.08,8.08,0,0,0,3.83-1,27.65,27.65,0,0,0,2.45-1.93M12.31,98H0m12.31,0H31.7m10.73-8.62H39.64a2.76,2.76,0,0,0-2.75,2.76V98m0,0H31.7m0,0L27.39,84.78M69,72.2,54,66.38l13.5-5.81ZM66.89,56.15,55.27,50.54l10.17-5.61ZM63.35,28.8l1.44,11.11-8.14-5.28Zm-4-.44-3.5,3.05.39-3.05Zm-4.25,8.79,8.42,5.46L53.74,48Zm-2,15.61,11.81,5.7L51.65,64.18Zm-2,15.65L67,74.58,55.58,80.79l0,0h-6Zm10.57,12.4,7.85-4.26.55,4.26Z"/></svg>