<svg width="21" height="35" viewBox="0 0 21 35" fill="none" xmlns="http://www.w3.org/2000/svg">
<path d="M18.4664 6.56552C17.8225 3.18985 16.2088 0.443896 15.9864 0C15.6347 0.629713 14.3477 3.05565 13.6935 5.73968C12.9789 8.74372 12.8737 11.4071 13.1202 14.0188C13.365 16.6409 14.29 19.3353 14.29 19.3353C14.7813 20.7392 15.5175 22.2567 15.9968 23C16.6993 21.9058 18.3138 18.6436 18.8172 14.3905C19.0974 12.0162 19.1095 9.9412 18.4664 6.56552ZM15.9864 22.1535C15.6701 21.4412 15.1787 20.0889 15.1322 17.9829C15.1201 15.9596 15.7985 14.215 15.9968 13.8537C16.1735 14.215 16.7579 15.7325 16.8277 17.8075C16.8751 19.8308 16.3131 21.4309 15.9864 22.1535ZM18.2793 12.2949C18.2552 13.5853 18.1268 14.9479 17.963 15.7635C18.0216 14.3595 17.8811 12.3878 17.6122 10.8393C17.3432 9.30116 16.5821 6.72037 15.9743 5.53321C15.4132 6.66876 14.7218 8.89856 14.3598 10.829C13.996 12.7594 13.9857 15.1028 13.9857 15.8048C13.8891 15.2163 13.6478 13.1001 13.7159 10.9838C13.7728 9.23923 14.1141 7.43268 14.3012 6.60682C15.0149 3.85054 15.8226 2.08528 15.9743 1.80655C16.1261 2.08528 17.1432 4.26346 17.6708 6.54488C18.1957 8.8263 18.3018 11.0148 18.2793 12.2949Z" fill="#0079C2"/>
<path d="M17.796 22.4949H12.1399V26.4034C12.1448 26.4034 12.1488 26.3931 12.1538 26.3931C13.4864 25.0185 15.6477 25.0185 16.9813 26.3931C18.3139 27.7575 18.3139 29.9836 16.9813 31.3582C16.9753 31.3685 16.9693 31.3685 16.9633 31.3787C16.9564 31.3787 16.9494 31.389 16.9434 31.3993C15.6138 32.7534 13.8768 33.4304 12.1399 33.4304C10.3949 33.4304 8.64999 32.7534 7.31938 31.3787C4.97287 28.968 4.695 25.2236 6.48376 22.4949C6.72478 22.1256 7.00266 21.7768 7.31938 21.4485C8.64999 20.0739 10.3949 19.3968 12.1399 19.3968V10C5.43501 10 0 15.5909 0 22.4949C0 29.3989 5.43501 35 12.1399 35C15.6357 35 18.785 33.4715 21 31.0402V22.4949H17.796Z" fill="#0079C2"/>
</svg>
