<svg id="Layer_1" data-name="Layer 1" xmlns="http://www.w3.org/2000/svg" viewBox="0 0 18 14.09"><path d="M15.06,11.74a.59.59,0,1,0-.58-.59A.59.59,0,0,0,15.06,11.74Z"/><path d="M7.63,11.74A.59.59,0,1,0,7,11.15.6.6,0,0,0,7.63,11.74Z"/><path d="M15.06,8.22H7.63a2.91,2.91,0,0,0-1.76.59V5.28a.6.6,0,0,0-.44-.57A.61.61,0,0,0,4.77,5L.08,13.21a.59.59,0,0,0,.51.88H2.94A2.9,2.9,0,0,0,5.28,12.9a2.94,2.94,0,0,0,2.35,1.19h7.43a2.94,2.94,0,1,0,0-5.87ZM7.63,12.91a1.76,1.76,0,1,1,1.76-1.76A1.76,1.76,0,0,1,7.63,12.91Zm7.43,0a1.76,1.76,0,1,1,1.76-1.76A1.76,1.76,0,0,1,15.06,12.91Z"/><path d="M15.06,0H11.54A.59.59,0,0,0,11,.44L9.91,4.7H9.39V4.11a.59.59,0,1,0-1.17,0V5A2.37,2.37,0,0,0,7,7v0a3.92,3.92,0,0,1,.59,0h7.43a4.13,4.13,0,0,1,1.76.4V1.76A1.76,1.76,0,0,0,15.06,0Zm-.58,4.11a.6.6,0,0,1-.59.59H11.12L12,1.17h1.89a.6.6,0,0,1,.59.59Z"/></svg>