<svg id="Layer_1" data-name="Layer 1" xmlns="http://www.w3.org/2000/svg" viewBox="0 0 15.06 15.55"><path d="M11,15.55H7.53A7.67,7.67,0,0,1,0,7.77,7.67,7.67,0,0,1,7.53,0a7.67,7.67,0,0,1,7.53,7.77v1a3,3,0,0,1-3,3.1A3.08,3.08,0,0,1,10,11.05a3.89,3.89,0,0,1-2.45.86,4.09,4.09,0,0,1-4-4.14,4.08,4.08,0,0,1,4-4.13,4.07,4.07,0,0,1,4,4.13,3.82,3.82,0,0,1-.82,2.61,2.1,2.1,0,0,0,1.38.53,2,2,0,0,0,2-2.1v-1A6.66,6.66,0,0,0,7.53,1,6.66,6.66,0,0,0,1,7.77a6.67,6.67,0,0,0,6.53,6.78H11ZM7.53,4.64a3.08,3.08,0,0,0-3,3.13,3.09,3.09,0,0,0,3,3.14A2.94,2.94,0,0,0,9.66,10l.11-.08c.06,0,.77-.52.77-2.14A3.07,3.07,0,0,0,7.53,4.64Z"/></svg>