<svg id="Layer_1" data-name="Layer 1" xmlns="http://www.w3.org/2000/svg" viewBox="0 0 13.05 13.47"><path d="M11.89,13.47C5.44,13.47,0,7.84,0,1.19A1.19,1.19,0,0,1,1.3,0H3.61A1.18,1.18,0,0,1,4.78,1.19a7.26,7.26,0,0,0,.35,2.29,1.25,1.25,0,0,1-.27,1.2L2.34,6.51A11.42,11.42,0,0,0,7,11.23L8.49,8.51a1.12,1.12,0,0,1,1.2-.29,7.14,7.14,0,0,0,2.2.36,1.17,1.17,0,0,1,1.16,1.18v2.39A1.21,1.21,0,0,1,11.89,13.47Zm-4-1.81a10.26,10.26,0,0,0,4,.81c.15,0,.16-.29.16-.32V9.76a.18.18,0,0,0-.16-.18,7.7,7.7,0,0,1-2.52-.42.19.19,0,0,0-.13,0ZM1.3,1C1,1,1,1.13,1,1.19a11.2,11.2,0,0,0,.9,4.4L4.2,3.93s0-.08,0-.15a8.55,8.55,0,0,1-.39-2.59A.19.19,0,0,0,3.61,1Z"/></svg>