<svg id="Layer_1" data-name="Layer 1" xmlns="http://www.w3.org/2000/svg" viewBox="0 0 32 31.99"><defs><style>.cls-1,.cls-2,.cls-3,.cls-4,.cls-5,.cls-6,.cls-7{fill:#ff6000;}.cls-2{fill-opacity:0.3;}.cls-3{fill-opacity:0.2;}.cls-4{fill-opacity:0.1;}.cls-5{fill-opacity:0.5;}.cls-6{fill-opacity:0.7;}.cls-7{fill-opacity:0.6;}</style></defs><path class="cls-1" d="M27.32,4.69A15.88,15.88,0,0,0,16,0,16.09,16.09,0,0,0,8.6,1.81,16.33,16.33,0,0,0,5,4.39V0H2.5V8.75h8.75V6.25H6.67A13.49,13.49,0,0,1,29.5,16c0,.42,0,.83-.05,1.24l2.49.23c0-.48.06-1,.06-1.47h0A15.89,15.89,0,0,0,27.32,4.69Z"/><path class="cls-2" d="M5.48,24.47,3.54,26A15,15,0,0,0,5.41,28l1.65-1.87A13.69,13.69,0,0,1,5.48,24.47Z"/><path class="cls-3" d="M3.26,20.49l-2.35.83A16.08,16.08,0,0,0,2,23.79L4.2,22.57A13.92,13.92,0,0,1,3.26,20.49Z"/><path class="cls-4" d="M2.5,16H0a16.22,16.22,0,0,0,.23,2.7l2.46-.42A13.32,13.32,0,0,1,2.5,16Z"/><path class="cls-5" d="M8.9,27.48,7.58,29.61A17.08,17.08,0,0,0,10,30.84l.94-2.32A13,13,0,0,1,8.9,27.48Z"/><path class="cls-1" d="M29.05,19.49a13.45,13.45,0,0,1-.78,2.15l2.27,1.05a15.53,15.53,0,0,0,.92-2.55Z"/><path class="cls-1" d="M24,26.9A13.37,13.37,0,0,1,22,28.09l1.12,2.24a17,17,0,0,0,2.31-1.41Z"/><path class="cls-1" d="M27.15,23.63A15.33,15.33,0,0,1,25.7,25.4l1.79,1.74A16.42,16.42,0,0,0,29.21,25Z"/><path class="cls-6" d="M19.9,28.93a13.21,13.21,0,0,1-2.23.47l.3,2.48a15.78,15.78,0,0,0,2.65-.55Z"/><path class="cls-7" d="M13.11,29.19l-.53,2.45a16.1,16.1,0,0,0,2.69.35l.11-2.5A14.4,14.4,0,0,1,13.11,29.19Z"/></svg>