<svg id="Layer_1" data-name="Layer 1" xmlns="http://www.w3.org/2000/svg" viewBox="0 0 14 20.01"><path d="M7,20l-.38-.45c-.18-.21-.43-.5-.71-.85-.6-.74-1.51-1.9-2.41-3.24a28.77,28.77,0,0,1-2.41-4.22A10.82,10.82,0,0,1,0,7,7,7,0,0,1,14,7a10.82,10.82,0,0,1-1.09,4.25,28.77,28.77,0,0,1-2.41,4.22c-.9,1.34-1.81,2.5-2.41,3.24-.28.35-.53.64-.71.85ZM7,1A6,6,0,0,0,1,7a9.74,9.74,0,0,0,1,3.84,26.7,26.7,0,0,0,2.32,4.07c.88,1.31,1.77,2.44,2.35,3.17l.32.38.32-.38c.58-.73,1.47-1.86,2.35-3.17A26.7,26.7,0,0,0,12,10.84,9.74,9.74,0,0,0,13,7,6,6,0,0,0,7,1Zm0,9.5A3.5,3.5,0,1,1,10.5,7,3.5,3.5,0,0,1,7,10.5Zm0-6A2.5,2.5,0,1,0,9.5,7,2.5,2.5,0,0,0,7,4.5Z"/></svg>