<svg id="Layer_1" data-name="Layer 1" xmlns="http://www.w3.org/2000/svg" viewBox="0 0 14 14"><path d="M13.46,10.75h0L10,7.65a.4.4,0,0,0-.56,0l-.58.58-.71-.71L9.38,6a3.16,3.16,0,0,0,4.55-3.46.38.38,0,0,0-.64-.19L11.94,3.66a.63.63,0,0,1-.88,0l-.72-.72a.63.63,0,0,1,0-.88L11.68.71a.38.38,0,0,0-.19-.64A3.16,3.16,0,0,0,8,4.62L6.47,5.89,3.31,2.73l.35-.35a.35.35,0,0,0,0-.51L1.82.38a.35.35,0,0,0-.46,0l-1,1a.35.35,0,0,0,0,.46L1.87,3.63a.35.35,0,0,0,.51,0l.35-.35L5.84,6.42.42,10.87a1.08,1.08,0,0,0-.1,1.62c.12.13,1.06,1.07,1.19,1.19a1.08,1.08,0,0,0,1.62-.1L7.58,8.16l.66.66-.6.6a.4.4,0,0,0,0,.56l3.12,3.49a1.6,1.6,0,0,0,2.33.06l.45-.45A1.6,1.6,0,0,0,13.46,10.75Zm-11.1,1.3A.41.41,0,0,1,2,11.64a.41.41,0,0,1,.41-.41.42.42,0,0,1,.41.41A.41.41,0,0,1,2.36,12.05Z"/></svg>