<svg id="Layer_1" data-name="Layer 1" xmlns="http://www.w3.org/2000/svg" viewBox="0 0 22 22"><path d="M18.82,3.21A11,11,0,0,0,.12,10.94a11.39,11.39,0,0,0,1.44,5.41L0,22l5.81-1.49A10.7,10.7,0,0,0,11,21.82,11,11,0,0,0,22,10.88,10.74,10.74,0,0,0,18.82,3.21ZM11.09,20a9,9,0,0,1-4.62-1.25l-.36-.18-3.47.89.9-3.39L3.3,15.7A9,9,0,0,1,6.23,3.27,9.1,9.1,0,0,1,18.76,6.18a9,9,0,0,1-2.93,12.43A8.82,8.82,0,0,1,11.09,20Zm5.28-6.6-.66-.3s-1-.42-1.56-.71c-.06,0-.12-.06-.18-.06a.87.87,0,0,0-.42.12l-.9,1a.33.33,0,0,1-.3.18h-.06a.45.45,0,0,1-.24-.12l-.3-.12A6,6,0,0,1,10,12.25c-.12-.12-.3-.24-.42-.36a6.41,6.41,0,0,1-1.14-1.43l-.06-.11c-.06-.06-.06-.12-.12-.24a.45.45,0,0,1,.06-.3,5.78,5.78,0,0,1,.42-.47c.12-.12.18-.3.3-.42a.74.74,0,0,0,.12-.6,24.18,24.18,0,0,0-1-2.26.72.72,0,0,0-.42-.29H7.13c-.12,0-.24.06-.36.06l-.06.06c-.12.06-.24.17-.36.23s-.18.24-.3.36A3,3,0,0,0,5.4,8.32a3.46,3.46,0,0,0,.29,1.37l.06.18A9.87,9.87,0,0,0,8,12.9l.24.24a3.62,3.62,0,0,1,.48.48A10.81,10.81,0,0,0,13,15.88c.18.06.42.06.6.11h.6a2.22,2.22,0,0,0,.9-.23c.18-.12.3-.12.42-.24l.12-.12c.12-.12.24-.18.36-.3a1.81,1.81,0,0,0,.3-.35,3.44,3.44,0,0,0,.24-.84V13.5A.74.74,0,0,0,16.37,13.38Z"/></svg>