<svg id="Layer_1" data-name="Layer 1" xmlns="http://www.w3.org/2000/svg" viewBox="0 0 18 18"><path d="M6,9a3,3,0,1,1,3,3A3,3,0,0,1,6,9ZM4.38,9A4.62,4.62,0,1,0,9,4.38,4.62,4.62,0,0,0,4.38,9Zm8.34-4.8a1.09,1.09,0,0,0,.67,1,1.05,1.05,0,0,0,.63.07,1.19,1.19,0,0,0,.55-.3,1.1,1.1,0,0,0,.23-1.18,1.14,1.14,0,0,0-.39-.48,1.08,1.08,0,0,0-.6-.18h0a1.08,1.08,0,0,0-.76.31A1.14,1.14,0,0,0,12.72,4.2ZM5.36,16.33A5.12,5.12,0,0,1,3.69,16a2.77,2.77,0,0,1-1-.68,2.77,2.77,0,0,1-.68-1,5.12,5.12,0,0,1-.31-1.67c0-1,0-1.24,0-3.64s0-2.69,0-3.64A5.12,5.12,0,0,1,2,3.69a2.77,2.77,0,0,1,.68-1,2.77,2.77,0,0,1,1-.68,5.12,5.12,0,0,1,1.67-.31c.95,0,1.24,0,3.64,0s2.69,0,3.64,0A5.06,5.06,0,0,1,14.31,2a2.77,2.77,0,0,1,1,.68,2.77,2.77,0,0,1,.68,1,5.12,5.12,0,0,1,.31,1.67c0,.95.05,1.24.05,3.64s0,2.69-.05,3.64A5.12,5.12,0,0,1,16,14.31,3.08,3.08,0,0,1,14.31,16a5.06,5.06,0,0,1-1.67.31c-1,0-1.24.05-3.64.05S6.31,16.37,5.36,16.33ZM5.29.05A6.78,6.78,0,0,0,3.11.47a4.37,4.37,0,0,0-1.6,1,4.42,4.42,0,0,0-1,1.59A6.9,6.9,0,0,0,.05,5.29C0,6.25,0,6.56,0,9s0,2.75.05,3.71A6.9,6.9,0,0,0,.47,14.9a4.42,4.42,0,0,0,1,1.59,4.37,4.37,0,0,0,1.6,1A6.78,6.78,0,0,0,5.29,18c1,0,1.27.05,3.71.05s2.75,0,3.71-.05a6.9,6.9,0,0,0,2.19-.42,4.64,4.64,0,0,0,2.63-2.63A6.9,6.9,0,0,0,18,12.71c0-1,.05-1.27.05-3.71S18,6.25,18,5.29a6.9,6.9,0,0,0-.42-2.19,4.42,4.42,0,0,0-1-1.59,4.42,4.42,0,0,0-1.59-1A6.9,6.9,0,0,0,12.71.05c-1,0-1.26,0-3.71,0S6.25,0,5.29.05Z"/></svg>