<svg id="Layer_1" data-name="Layer 1" xmlns="http://www.w3.org/2000/svg" viewBox="0 0 22.44 19.79"><defs><style>.cls-1{fill:#ff6000;}</style></defs><path class="cls-1" d="M21,0H1.4A1.4,1.4,0,0,0,0,1.4v14a1.4,1.4,0,0,0,1.4,1.4H11.92l.4-.49.66-.8-.07-.11H1.4V1.4H21v6a5.64,5.64,0,0,1,1.4,1.27V1.4a1.37,1.37,0,0,0-.41-1A1.41,1.41,0,0,0,21,0Z"/><path class="cls-1" d="M3.51,4.21H15.43V5.33H3.51Z"/><path class="cls-1" d="M3.51,7h7.71V8.14H3.51Z"/><path class="cls-1" d="M3.51,11.92h7v1.13h-7Z"/><path class="cls-1" d="M17.85,7.88a4.45,4.45,0,0,0-3.08,7.71l-1.36,1.66L14,19.79l2.57-3.13a4.4,4.4,0,0,0,2.49,0l2.56,3.13.63-2.54-1.36-1.66a4.45,4.45,0,0,0-3.08-7.71Zm0,7.49a3,3,0,0,1-2.76-1.9,3,3,0,0,1,2.23-4.09,3,3,0,0,1,3.09,1.29,3,3,0,0,1-.4,3.82A3.09,3.09,0,0,1,17.85,15.37Z"/></svg>