<svg width="76" height="72" viewBox="0 0 76 72" fill="none" xmlns="http://www.w3.org/2000/svg">
<path d="M51.5645 3.86213C49.9744 11.8126 49.8472 27.7134 62.0591 27.7134C76.3699 27.7134 74.7798 11.8126 73.5077 3.86213M62.0591 2.90808V20.081" stroke="#FF6000" stroke-width="2" stroke-linecap="round"/>
<path opacity="0.5" d="M9.86313 35.3457C9.86313 19.2217 24.5292 3.93141 40.1162 1.95402C38.7981 1.78684 37.4546 1.70044 36.0911 1.70044C18.6036 1.70044 1 17.5906 1 35.0781C1 52.5656 17.6495 68.9911 35.137 68.9911C36.5006 68.9911 37.844 68.9049 39.1621 68.7375C23.5751 66.7602 9.86313 51.4697 9.86313 35.3457Z" fill="#1B377F" fill-opacity="0.2"/>
<path d="M50.0188 67.5476C50.5216 67.3193 50.7442 66.7265 50.5159 66.2237C50.2875 65.7208 49.6948 65.4982 49.1919 65.7266L50.0188 67.5476ZM39.8671 2.30395C40.4144 2.37816 40.9182 1.99467 40.9924 1.4474C41.0666 0.900123 40.6831 0.396304 40.1359 0.322088L39.8671 2.30395ZM11.06 11.06L10.3529 10.3529L10.3529 10.3529L11.06 11.06ZM11.06 59.6348L10.3529 60.3419L10.3529 60.3419L11.06 59.6348ZM35.3474 69.6948V70.6948H35.3474L35.3474 69.6948ZM35.9446 57.6738C36.4968 57.6607 36.9338 57.2025 36.9207 56.6504C36.9076 56.0983 36.4495 55.6613 35.8973 55.6743L35.9446 57.6738ZM40.1621 15.73C40.6996 15.857 41.2382 15.5242 41.3651 14.9867C41.4921 14.4492 41.1593 13.9105 40.6218 13.7836L40.1621 15.73ZM34.9127 14.153L34.9364 15.1528L34.9369 15.1528L34.9127 14.153ZM20.0258 20.7365L19.3021 20.0463L19.3021 20.0463L20.0258 20.7365ZM14.1548 35.9178L15.1545 35.8941L15.1545 35.894L14.1548 35.9178ZM35.4098 56.68L35.4114 55.68H35.4098V56.68ZM40.1359 0.322088C38.5595 0.108311 36.9488 0 35.3474 0V2C36.8595 2 38.3804 2.10234 39.8671 2.30395L40.1359 0.322088ZM35.3474 0C25.9077 0 17.028 3.67816 10.3529 10.3529L11.7671 11.7672C18.0671 5.46744 26.4381 2 35.3474 2V0ZM10.3529 10.3529C3.67802 17.0278 0 25.9077 0 35.3474H2C2 26.4381 5.46732 18.067 11.7671 11.7671L10.3529 10.3529ZM0 35.3474C0 44.7871 3.67816 53.6668 10.3529 60.3419L11.7672 58.9277C5.46744 52.6277 2 44.2567 2 35.3474H0ZM10.3529 60.3419C17.028 67.0168 25.9077 70.6948 35.3474 70.6948V68.6948C26.4381 68.6948 18.0671 65.2275 11.7671 58.9277L10.3529 60.3419ZM35.3474 70.6948C40.4093 70.6947 45.481 69.608 50.0188 67.5476L49.1919 65.7266C44.9185 67.6669 40.1292 68.6947 35.3474 68.6948L35.3474 70.6948ZM40.6218 13.7836C38.6997 13.3296 36.7189 13.1091 34.8885 13.1533L34.9369 15.1528C36.5807 15.113 38.3904 15.3116 40.1621 15.73L40.6218 13.7836ZM34.889 13.1533C28.9445 13.2942 23.4059 15.7437 19.3021 20.0463L20.7494 21.4267C24.4871 17.5079 29.5221 15.2811 34.9364 15.1528L34.889 13.1533ZM19.3021 20.0463C15.1984 24.349 13.0139 29.9973 13.1551 35.9415L15.1545 35.894C15.026 30.4802 17.0118 25.3456 20.7494 21.4267L19.3021 20.0463ZM13.1551 35.9415C13.442 48.0384 23.3722 57.68 35.4098 57.68V55.68C24.4553 55.68 15.4156 46.9022 15.1545 35.8941L13.1551 35.9415ZM35.4082 57.68C35.5869 57.6802 35.7671 57.678 35.9446 57.6738L35.8973 55.6743C35.7346 55.6782 35.5713 55.6802 35.4114 55.68L35.4082 57.68Z" fill="#1B377F"/>
<path d="M61.3384 70.0531C61.3384 70.6054 61.7861 71.0531 62.3384 71.0531C62.8907 71.0531 63.3384 70.6054 63.3384 70.0531H61.3384ZM63.3384 39.3283C63.3384 38.776 62.8907 38.3283 62.3384 38.3283C61.7861 38.3283 61.3384 38.776 61.3384 39.3283H63.3384ZM63.3384 70.0531V39.3283H61.3384V70.0531H63.3384Z" fill="#FF6000"/>
</svg>
