<svg width="245" height="118" viewBox="0 0 245 118" fill="none" xmlns="http://www.w3.org/2000/svg">
<path d="M75.8157 76.6699H91.2668V81.728H83.9165V117.268H75.8157V76.6699Z" fill="#0079C2"/>
<path d="M100.427 102.027L101.816 81.728H102.281L103.669 102.027H100.427ZM91.4563 117.268H99.3877L100.138 106.486H103.958L104.712 117.268H112.64L108.415 76.6699H95.6811L91.4563 117.268Z" fill="#0079C2"/>
<path d="M124.242 103.058V110.712C124.242 111.744 125.039 112.043 125.504 112.043C126.268 112.043 126.799 111.411 126.799 110.712V101.262C126.799 99.997 126.567 98.5994 123.544 98.5994H120.256V94.1403H123.677C125.969 94.1403 126.799 93.6078 126.799 91.1121V83.0591C126.799 82.3603 126.268 81.728 125.504 81.728C125.039 81.728 124.242 81.9943 124.242 83.0591V89.6812H116.138V83.9243C116.138 81.0958 116.47 76.6699 122.149 76.6699H128.859C134.538 76.6699 134.904 81.0958 134.904 83.9243V90.4133C134.904 94.8391 131.815 96.0371 129.39 95.9372V96.3366C134.837 96.2035 134.904 100.396 134.904 101.827V110.013C134.904 112.875 134.538 117.268 128.859 117.268H122.149C116.47 117.268 116.138 112.875 116.138 110.013V103.058H124.242Z" fill="#0079C2"/>
<path d="M140.218 76.6699H158.983V117.268H150.879V81.728H148.322V117.268H140.218V76.6699Z" fill="#0079C2"/>
<path d="M172.402 98.9987V81.728H173.465C174.328 81.728 174.959 82.4601 174.959 83.7579V96.9688C174.959 98.2666 174.328 98.9987 173.465 98.9987H172.402ZM164.298 117.268H172.402V103.458H177.052C182.698 103.458 183.063 99.0653 183.063 96.2035V83.9243C183.063 81.0958 182.698 76.6699 177.052 76.6699H164.298V117.268Z" fill="#0079C2"/>
<path d="M199.039 110.712C199.039 111.411 198.508 112.043 197.744 112.043C197.279 112.043 196.482 111.744 196.482 110.712V83.0591C196.482 81.9943 197.279 81.728 197.744 81.728C198.508 81.728 199.039 82.3603 199.039 83.0591V110.712ZM188.378 110.013C188.378 112.875 188.743 117.268 194.389 117.268H201.132C206.778 117.268 207.144 112.875 207.144 110.013V83.9243C207.144 81.0958 206.778 76.6699 201.132 76.6699H194.389C188.743 76.6699 188.378 81.0958 188.378 83.9243V110.013Z" fill="#0079C2"/>
<path d="M233.515 76.6699H244.077V117.268H235.973V91.8109H235.674L231.489 117.268H225.013L220.861 91.8109H220.562V117.268H212.458V76.6699H222.987L228.268 105.221L233.515 76.6699Z" fill="#0079C2"/>
<path d="M65.3137 21.1641C62.8327 10.2825 56.615 1.43091 55.7581 0C54.403 2.02989 49.4441 9.84995 46.9232 18.502C44.1698 28.1855 43.7646 36.771 44.7145 45.19C45.6578 53.6423 49.2216 62.3276 49.2216 62.3276C51.1148 66.8532 53.9513 71.745 55.798 74.1409C58.5049 70.6136 64.7259 60.0981 66.6655 46.388C67.745 38.7343 67.7915 32.0456 65.3137 21.1641ZM55.7581 71.4122C54.5391 69.1161 52.6459 64.7568 52.4666 57.9683C52.4201 51.4461 55.034 45.8223 55.798 44.6576C56.4788 45.8223 58.7307 50.714 58.9998 57.4026C59.1824 63.9249 57.0169 69.0828 55.7581 71.4122ZM64.593 39.6328C64.5 43.7924 64.0051 48.1849 63.374 50.8138C63.5999 46.2882 63.0585 39.9323 62.0222 34.9407C60.986 29.9825 58.0532 21.6632 55.7116 17.8364C53.5494 21.4969 50.8856 28.6847 49.4906 34.9074C48.089 41.1302 48.0491 48.6841 48.0491 50.9469C47.6772 49.0501 46.7472 42.2284 47.0095 35.4066C47.2288 29.7828 48.544 23.9594 49.2648 21.2972C52.0149 12.4123 55.127 6.72193 55.7116 5.82344C56.2962 6.72193 60.2154 13.7433 62.2481 21.0975C64.2708 28.4517 64.6793 35.5064 64.593 39.6328Z" fill="#0079C2"/>
<path d="M59.9662 76.6699H41.104V89.3484C41.1206 89.3484 41.1339 89.3151 41.1505 89.3151C45.5946 84.856 52.802 84.856 57.2493 89.3151C61.6933 93.741 61.6933 100.962 57.2493 105.421C57.2294 105.454 57.2095 105.454 57.1895 105.488C57.1663 105.488 57.143 105.521 57.1231 105.554C52.689 109.947 46.8965 112.143 41.104 112.143C35.285 112.143 29.4659 109.947 25.0285 105.488C17.2033 97.6676 16.2767 85.5215 22.2419 76.6699C23.0456 75.4719 23.9723 74.3405 25.0285 73.2757C29.4659 68.8166 35.285 66.6203 41.104 66.6203V36.1387C18.7445 36.1387 0.619629 54.2745 0.619629 76.6699C0.619629 99.0653 18.7445 117.234 41.104 117.234C52.7621 117.234 63.2644 112.276 70.6511 104.39V76.6699H59.9662Z" fill="#0079C2"/>
</svg>
