<svg id="Layer_1" data-name="Layer 1" xmlns="http://www.w3.org/2000/svg" viewBox="0 0 78.59 31.26"><path d="M7.23,27.41q-4,0-5.6-2.35A11.53,11.53,0,0,1,0,18.49V9q0-4.41,1.59-6.7C2.65.76,4.54,0,7.23,0c2.42,0,4.14.65,5.18,2A9,9,0,0,1,14,7.73V9.86H10.45V8a18.77,18.77,0,0,0-.16-2.85,2.6,2.6,0,0,0-.86-1.59,3.2,3.2,0,0,0-2.16-.6A3.42,3.42,0,0,0,5,3.58a3,3,0,0,0-1,1.8,15.31,15.31,0,0,0-.24,3.05V19.08a11.82,11.82,0,0,0,.34,3.22A2.82,2.82,0,0,0,5.18,24a3.8,3.8,0,0,0,2.09.5,3.07,3.07,0,0,0,2.12-.63,2.78,2.78,0,0,0,.86-1.73,16.72,16.72,0,0,0,.2-3v-2H14v2a10.59,10.59,0,0,1-1.52,6.17Q11,27.41,7.23,27.41Z"/><path d="M18,.23h3.68L26.44,22,31.22.23h3.65l.5,26.88h-3L32.05,7.6,27.5,27.11H25.38L20.86,7.6l-.3,19.51h-3Z"/><path d="M39.15,28.31c.6.06,1.12.1,1.56.1a3.47,3.47,0,0,0,2.23-.53,2.11,2.11,0,0,0,.63-1.7,14.54,14.54,0,0,0-.23-2.05L38,.23h3.55l2.25,11.45,1.36,8.53,1.2-8.46,2-11.52H52l-4.81,24-.27,1.5a19.68,19.68,0,0,1-.86,3.41,2.87,2.87,0,0,1-1.56,1.6,8.76,8.76,0,0,1-3.59.56l-1.76-.06Z"/><path d="M54,15.76h7.4v2.69H54Z"/><path d="M72.19,19.91h-7.8V16.2l7-16h4.18V16.76h3v3.15h-3v7.2H72.19Zm0-3.15V4.55L67.81,16.76Z"/></svg>