<svg width="79" height="33" viewBox="0 0 79 33" fill="none" xmlns="http://www.w3.org/2000/svg">
<path d="M7.64024 28.2932C4.9853 28.2932 3.11577 27.5078 2.03167 25.9369C0.947569 24.3439 0.405518 22.1536 0.405518 19.3659V9.87449C0.405518 6.93192 0.936507 4.69734 1.99848 3.17075C3.06046 1.64416 4.94105 0.880859 7.64024 0.880859C10.0518 0.880859 11.7775 1.53353 12.8174 2.83888C13.8794 4.14423 14.4104 6.06906 14.4104 8.61339V10.7373H10.8594V8.8457C10.8594 7.60672 10.8041 6.65537 10.6934 5.99163C10.5828 5.32789 10.2952 4.79691 9.83057 4.39866C9.38808 4.00042 8.66904 3.8013 7.67343 3.8013C6.6557 3.8013 5.89241 4.02254 5.38354 4.46504C4.8968 4.8854 4.576 5.48277 4.42112 6.25712C4.26625 7.00936 4.18881 8.02709 4.18881 9.31031V19.9633C4.18881 21.335 4.29944 22.408 4.52068 23.1824C4.74193 23.9568 5.09592 24.5099 5.58266 24.8417C6.09153 25.1736 6.78845 25.3395 7.67343 25.3395C8.62479 25.3395 9.33277 25.1294 9.79739 24.709C10.262 24.2886 10.5496 23.7134 10.6602 22.9833C10.793 22.2532 10.8594 21.2576 10.8594 19.9965V18.0053H14.4104V19.9965C14.4104 22.6735 13.9015 24.7311 12.8838 26.1692C11.8882 27.5852 10.1403 28.2932 7.64024 28.2932Z" fill="white"/>
<path d="M18.4143 1.11317H22.098L26.8437 22.9169L31.6226 1.11317H35.2732L35.771 27.9945H32.751L32.4523 8.48064L27.9057 27.9945H25.7818L21.2684 8.48064L20.9697 27.9945H17.9165L18.4143 1.11317Z" fill="white"/>
<path d="M39.5595 29.1892C40.1568 29.2556 40.6768 29.2888 41.1193 29.2888C42.2034 29.2888 42.9445 29.1118 43.3428 28.7578C43.7631 28.4038 43.9733 27.8396 43.9733 27.0653C43.9733 26.6228 43.8959 25.9369 43.741 25.0077L38.4311 1.11317H41.9821L44.2388 12.5626L45.5995 21.0916L46.7942 12.629L48.8186 1.11317H52.4028L47.5907 25.0741L47.3252 26.5675C47.0376 28.1383 46.75 29.2777 46.4623 29.9857C46.1968 30.6937 45.6769 31.2247 44.9026 31.5787C44.1282 31.9548 42.9335 32.1428 41.3184 32.1428C41.0308 32.1428 40.4445 32.1207 39.5595 32.0765V29.1892Z" fill="white"/>
<path d="M54.4321 16.6446H61.8328V19.3327H54.4321V16.6446Z" fill="white"/>
<path d="M72.5949 20.793H64.796V17.076L71.7984 1.11317H75.9799V17.6402H78.9999V20.793H75.9799V27.9945H72.5949V20.793ZM72.5949 17.6402V5.42745L68.2142 17.6402H72.5949Z" fill="white"/>
</svg>
